<?xml version="1.0" encoding="UTF-8" standalone="no"?><!DOCTYPE svg PUBLIC "-//W3C//DTD SVG 1.1//EN" "http://www.w3.org/Graphics/SVG/1.1/DTD/svg11.dtd"><svg width="100%" height="100%" viewBox="0 0 1201 1384" version="1.1" xmlns="http://www.w3.org/2000/svg" xmlns:xlink="http://www.w3.org/1999/xlink" xml:space="preserve" xmlns:serif="http://www.serif.com/" style="fill-rule:evenodd;clip-rule:evenodd;stroke-linejoin:round;stroke-miterlimit:2;"><rect id="Artboard1" x="0" y="0" width="1200.17" height="1383.58" style="fill:none;"/><g><path d="M279.495,483.725l-181.591,-104.841l353.682,-204.199c91.892,-53.054 205.108,-53.054 297,0l353.682,204.199l-181.591,104.841c-1.791,-3.102 -3.725,-6.122 -5.795,-9.05c-9.602,-13.582 -22.14,-25.178 -37.03,-33.775l-135.717,-78.356c-9.387,70.046 -69.451,124.14 -142.049,124.14c-72.599,-0 -132.662,-54.094 -142.05,-124.14l-135.716,78.356c-14.891,8.597 -27.429,20.193 -37.031,33.775c-2.07,2.928 -4.003,5.948 -5.794,9.05Z" style="fill:#7cbb04;"/><path d="M920.677,483.725l181.591,-104.841l-0,408.396c-0,106.108 -56.608,204.156 -148.5,257.21l-353.682,204.198l-0,-209.683c3.582,-0 7.164,-0.164 10.734,-0.493c16.564,-1.524 32.875,-6.585 47.766,-15.182l135.716,-78.356c-55.968,-43.153 -72.782,-122.216 -36.483,-185.088c36.299,-62.872 113.177,-87.842 178.533,-60.949l-0,-156.712c-0,-17.194 -3.773,-33.85 -10.735,-48.957c-1.501,-3.256 -3.149,-6.441 -4.94,-9.543Z" style="fill:#ffa400;"/><path d="M600.086,1039.01l-0,209.683l-353.682,-204.198c-91.892,-53.054 -148.5,-151.102 -148.5,-257.21l-0,-408.396l181.591,104.841c-1.791,3.102 -3.44,6.287 -4.941,9.543c-6.961,15.107 -10.734,31.763 -10.734,48.957l-0,156.712c65.355,-26.893 142.233,-1.923 178.532,60.949c36.299,62.872 19.485,141.935 -36.483,185.088l135.717,78.356c14.89,8.597 31.201,13.658 47.765,15.182c3.57,0.329 7.153,0.493 10.735,0.493Z" style="fill:#2b638b;"/></g></svg>